<?xml version="1.0" encoding="UTF-8" standalone="no"?>
<!-- Generator: Adobe Illustrator 22.1.0, SVG Export Plug-In . SVG Version: 6.00 Build 0)  -->

<svg
   xmlns:dc="http://purl.org/dc/elements/1.1/"
   xmlns:cc="http://creativecommons.org/ns#"
   xmlns:rdf="http://www.w3.org/1999/02/22-rdf-syntax-ns#"
   xmlns:svg="http://www.w3.org/2000/svg"
   xmlns="http://www.w3.org/2000/svg"
   xmlns:sodipodi="http://sodipodi.sourceforge.net/DTD/sodipodi-0.dtd"
   xmlns:inkscape="http://www.inkscape.org/namespaces/inkscape"
   version="1.1"
   id="Layer_1"
   x="0px"
   y="0px"
   viewBox="0 0 1920 974"
   xml:space="preserve"
   sodipodi:docname="ThrivingCitiesImproved.svg"
   width="1920"
   height="974"
   inkscape:version="0.92.3 (2405546, 2018-03-11)"><metadata
   id="metadata21"><rdf:RDF><cc:Work
       rdf:about=""><dc:format>image/svg+xml</dc:format><dc:type
         rdf:resource="http://purl.org/dc/dcmitype/StillImage" /><dc:title /></cc:Work></rdf:RDF></metadata><defs
   id="defs19" /><sodipodi:namedview
   pagecolor="#ffffff"
   bordercolor="#666666"
   borderopacity="1"
   objecttolerance="10"
   gridtolerance="10"
   guidetolerance="10"
   inkscape:pageopacity="0"
   inkscape:pageshadow="2"
   inkscape:window-width="1920"
   inkscape:window-height="1017"
   id="namedview17"
   showgrid="false"
   fit-margin-top="0"
   fit-margin-left="0"
   fit-margin-right="0"
   fit-margin-bottom="0"
   inkscape:zoom="0.14791667"
   inkscape:cx="961.00002"
   inkscape:cy="541.00001"
   inkscape:window-x="-8"
   inkscape:window-y="-8"
   inkscape:window-maximized="1"
   inkscape:current-layer="Layer_1" />
<style
   type="text/css"
   id="style2">
	.st0{stroke:#000000;stroke-miterlimit:10;}
	.st1{fill:#1A1A1A;stroke:#000000;stroke-miterlimit:10;}
	.st2{fill:#333333;stroke:#000000;stroke-miterlimit:10;}
	.st3{fill:#666666;stroke:#000000;stroke-miterlimit:10;}
</style>
<g
   id="g8"
   transform="matrix(1.1930731,0,0,1.5948901,1.2608318,-107.07834)">
	<path
   class="st0"
   d="m 1101.3,0.8 c -0.1,-0.1 -0.1,-0.2 -0.2,-0.3 h -1.1 z"
   id="path4"
   inkscape:connector-curvature="0"
   style="stroke:#000000;stroke-miterlimit:10" />
	<path
   class="st0"
   d="M 1264.1625,109.51372 C 1006.9281,93.298931 935.68359,17.461683 922.85959,0.55287875 922.52432,0.48978619 922.18905,0.42669364 921.76997,0.36360109 H -0.63639891 V 681.76317 H 1608.6505 V 239.35819 c -5.5319,-9.96862 -68.73,-112.43093 -344.488,-129.84447 z m -74.9324,279.81547 c -5.8672,0 -11.3153,-1.13567 -15.9252,-3.15463 -4.0233,1.38804 -8.6332,2.20824 -13.4108,2.20824 -5.3643,0 -10.3933,-0.94639 -14.6679,-2.64989 -4.2747,1.7035 -9.3037,2.64989 -14.668,2.64989 -5.3643,0 -10.3933,-0.94639 -14.668,-2.64989 -4.2747,1.7035 -9.3037,2.64989 -14.668,2.64989 -5.8672,0 -11.3153,-1.13567 -15.9252,-3.15463 -4.0232,1.38804 -8.6332,2.20824 -13.4107,2.20824 -5.3643,0 -10.3934,-0.94639 -14.668,-2.64989 -4.2747,1.7035 -9.3037,2.64989 -14.668,2.64989 -16.1767,0 -29.2521,-8.76986 -29.2521,-19.55869 0,-10.78883 13.0754,-19.55869 29.2521,-19.55869 5.3643,0 10.3933,0.94639 14.668,2.64989 4.2746,-1.7035 9.3037,-2.64989 14.668,-2.64989 5.8672,0 11.3153,1.13566 15.9252,3.15463 4.0232,-1.38804 8.6331,-2.20824 13.4107,-2.20824 5.3643,0 10.3933,0.94638 14.668,2.64988 4.2747,-1.7035 9.3037,-2.64988 14.668,-2.64988 5.3643,0 10.3933,0.94638 14.668,2.64988 4.2746,-1.7035 9.3036,-2.64988 14.6679,-2.64988 5.8672,0 11.3153,1.13566 15.9253,3.15462 4.0232,-1.38803 8.6331,-2.20824 13.4107,-2.20824 16.1767,0 29.2521,8.76987 29.2521,19.5587 0,10.78882 -13.0754,19.55869 -29.2521,19.55869 z m 193.8688,-63.09256 c -10.1419,0 -19.697,-1.95586 -27.5758,-5.29977 -6.9568,2.33442 -14.9195,3.65937 -23.3012,3.65937 -9.3036,0 -18.0206,-1.64041 -25.4803,-4.41648 -7.4598,2.83916 -16.1767,4.41648 -25.4804,4.41648 -9.3037,0 -18.0207,-1.64041 -25.4804,-4.41648 -7.4597,2.83916 -16.1767,4.41648 -25.4804,4.41648 -10.1418,0 -19.697,-1.95587 -27.5758,-5.29978 -6.9568,2.33443 -14.9194,3.65937 -23.3011,3.65937 -9.3037,0 -18.0207,-1.6404 -25.4804,-4.41648 -7.4597,2.83917 -16.1767,4.41648 -25.4803,4.41648 -27.9949,0 -50.7932,-14.70056 -50.7932,-32.74503 0,-18.04447 22.7144,-32.74504 50.7932,-32.74504 9.3036,0 18.0206,1.64041 25.4803,4.41648 7.4597,-2.83916 16.1767,-4.41648 25.4804,-4.41648 10.1419,0 19.697,1.95587 27.5758,5.29978 6.9568,-2.33443 14.9194,-3.65937 23.3011,-3.65937 9.3037,0 18.0207,1.64041 25.4804,4.41648 7.4597,-2.83917 16.1767,-4.41648 25.4804,-4.41648 9.3037,0 18.0206,1.64041 25.4804,4.41648 7.4597,-2.83917 16.1767,-4.41648 25.4803,-4.41648 10.1419,0 19.697,1.95587 27.5758,5.29977 6.9569,-2.33442 14.9195,-3.65936 23.3012,-3.65936 27.9949,0 50.7931,14.70056 50.7931,32.74503 0,18.04447 -22.7144,32.74503 -50.7931,32.74503 z m 91.1091,-85.80587 c -5.8672,0 -11.3153,-1.13566 -15.9253,-3.15462 -4.0232,1.38803 -8.6331,2.20824 -13.4107,2.20824 -5.3643,0 -10.3933,-0.94639 -14.668,-2.64989 -4.2746,1.7035 -9.3036,2.64989 -14.6679,2.64989 -5.3643,0 -10.3933,-0.94639 -14.668,-2.64989 -4.2747,1.7035 -9.3037,2.64989 -14.668,2.64989 -5.8672,0 -11.3153,-1.13567 -15.9252,-3.15463 -4.0232,1.38803 -8.6332,2.20824 -13.4108,2.20824 -5.3642,0 -10.3933,-0.94639 -14.6679,-2.64989 -4.2747,1.7035 -9.3037,2.64989 -14.668,2.64989 -16.1767,0 -29.2522,-8.76987 -29.2522,-19.55869 0,-10.78883 13.0755,-19.5587 29.2522,-19.5587 5.3643,0 10.3933,0.94639 14.668,2.64989 4.2746,-1.7035 9.3037,-2.64989 14.6679,-2.64989 5.8672,0 11.3153,1.13567 15.9253,3.15463 4.0232,-1.38803 8.6331,-2.20824 13.4107,-2.20824 5.3643,0 10.3933,0.94639 14.668,2.64989 4.2747,-1.7035 9.3037,-2.64989 14.668,-2.64989 5.3643,0 10.3933,0.94639 14.6679,2.64989 4.2747,-1.7035 9.3037,-2.64989 14.668,-2.64989 5.8672,0 11.3153,1.13567 15.9253,3.15463 4.0232,-1.38804 8.6331,-2.20824 13.4107,-2.20824 16.1767,0 29.2521,8.76987 29.2521,19.55869 0,10.78883 -13.0754,19.55869 -29.2521,19.55869 z"
   id="path6"
   inkscape:connector-curvature="0"
   style="stroke:#000000;stroke-width:0.72720218;stroke-miterlimit:10" />
</g>
<rect
   x="1563.5072"
   y="502.50711"
   class="st1"
   width="150.98578"
   height="483.5069"
   id="rect10"
   style="fill:#1a1a1a;stroke:#000000;stroke-width:1.01421952;stroke-miterlimit:10" />
<rect
   x="1726.5283"
   y="800.52826"
   class="st2"
   width="108.94344"
   height="193.22513"
   id="rect12"
   style="fill:#333333;stroke:#000000;stroke-width:1.05656457;stroke-miterlimit:10" />
<rect
   x="1427.5162"
   y="872.51636"
   class="st3"
   width="122.96737"
   height="107.72793"
   id="rect14"
   style="fill:#666666;stroke:#000000;stroke-width:1.03263271;stroke-miterlimit:10" />
</svg>