<svg xmlns="http://www.w3.org/2000/svg" xmlns:xlink="http://www.w3.org/1999/xlink" viewBox="0 0 1919 974">
  <defs>
    <path id="a" d="M0 0h1920v974H0z"/>
  </defs>
  <clipPath id="b">
    <use xlink:href="#a" overflow="visible"/>
  </clipPath>
  <path d="M1509.4 67.6c-307-25.9-392-146.8-407.3-173.8-.4-.1-.8-.2-1.3-.3H0V980.3h1920.5V274.7c-6.6-15.9-82-179.3-411.1-207.1z" clip-path="url(#b)"/>
  <defs>
    <path id="c" d="M0 0h1920v974H0z"/>
  </defs>
  <clipPath id="d">
    <use xlink:href="#c" overflow="visible"/>
  </clipPath>
  <path d="M1563.5 502.5h151V980h-151V502.5z" clip-path="url(#d)" fill="#1a1a1a"/>
  <defs>
    <path id="e" d="M0 0h1920v974H0z"/>
  </defs>
  <clipPath id="f">
    <use xlink:href="#e" overflow="visible"/>
  </clipPath>
  <path d="M1726.5 800.5h108.9v180.2h-108.9V800.5z" clip-path="url(#f)" fill="#333"/>
  <defs>
    <path id="g" d="M0 0h1920v974H0z"/>
  </defs>
  <clipPath id="h">
    <use xlink:href="#g" overflow="visible"/>
  </clipPath>
  <path d="M1427.5 872.5h123v107.7h-123V872.5z" clip-path="url(#h)" fill="#666"/>
  <path d="M1649.3 332.2c-11 0-21.3 2.8-30.2 7.7-8.9-4.9-19.2-7.7-30.2-7.7s-21.3 2.8-30.2 7.7c-8.9-4.9-19.2-7.7-30.2-7.7s-21.3 2.8-30.2 7.7c-8.9-4.9-19.2-7.7-30.2-7.7s-21.3 2.8-30.2 7.7c-8.9-4.9-19.2-7.7-30.2-7.7s-21.3 2.8-30.2 7.7c-8.9-4.9-19.2-7.7-30.2-7.7-33.3 0-60.4 25.8-60.4 57.7 0 31.9 27 57.7 60.4 57.7 11 0 21.3-2.8 30.2-7.7 8.9 4.9 19.2 7.7 30.2 7.7s21.3-2.8 30.2-7.7c8.9 4.9 19.2 7.7 30.2 7.7s21.3-2.8 30.2-7.7c8.9 4.9 19.2 7.7 30.2 7.7s21.3-2.8 30.2-7.7c8.9 4.9 19.2 7.7 30.2 7.7s21.3-2.8 30.2-7.7c8.9 4.9 19.2 7.7 30.2 7.7 33.3 0 60.4-25.8 60.4-57.7 0-31.9-27.1-57.7-60.4-57.7zm-262.9 144.9c-6.4 0-12.3 1.5-17.5 4.2-5.1-2.7-11.1-4.2-17.5-4.2s-12.3 1.5-17.5 4.2c-5.1-2.7-11.1-4.2-17.5-4.2s-12.3 1.5-17.5 4.2c-5.1-2.7-11.1-4.2-17.5-4.2s-12.3 1.5-17.5 4.2c-5.1-2.7-11.1-4.2-17.5-4.2s-12.3 1.5-17.5 4.2c-5.1-2.7-11.1-4.2-17.5-4.2-19.3 0-35 14.1-35 31.5s15.7 31.5 35 31.5c6.4 0 12.3-1.5 17.5-4.2 5.1 2.7 11.1 4.2 17.5 4.2s12.3-1.5 17.5-4.2c5.1 2.7 11.1 4.2 17.5 4.2s12.3-1.5 17.5-4.2c5.1 2.7 11.1 4.2 17.5 4.2s12.3-1.5 17.5-4.2c5.1 2.7 11.1 4.2 17.5 4.2s12.3-1.5 17.5-4.2c5.1 2.7 11.1 4.2 17.5 4.2 19.3 0 35-14.1 35-31.5s-15.7-31.5-35-31.5zm410.7-237.4c-6.4 0-12.3 1.5-17.5 4.2-5.1-2.7-11.1-4.2-17.5-4.2s-12.3 1.5-17.5 4.2c-5.1-2.7-11.1-4.2-17.5-4.2s-12.3 1.5-17.5 4.2c-5.1-2.7-11.1-4.2-17.5-4.2s-12.3 1.5-17.5 4.2c-5.1-2.7-11.1-4.2-17.5-4.2s-12.3 1.5-17.5 4.2c-5.1-2.7-11.1-4.2-17.5-4.2-19.3 0-35 14.1-35 31.5s15.7 31.5 35 31.5c6.4 0 12.3-1.5 17.5-4.2 5.1 2.7 11.1 4.2 17.5 4.2s12.3-1.5 17.5-4.2c5.1 2.7 11.1 4.2 17.5 4.2s12.3-1.5 17.5-4.2c5.1 2.7 11.1 4.2 17.5 4.2s12.3-1.5 17.5-4.2c5.1 2.7 11.1 4.2 17.5 4.2s12.3-1.5 17.5-4.2c5.1 2.7 11.1 4.2 17.5 4.2 19.3 0 35-14.1 35-31.5s-15.7-31.5-35-31.5z" fill="#fff"/>
</svg>
