<svg xmlns="http://www.w3.org/2000/svg" viewBox="0 0 1920 974">
  <path stroke-miterlimit="10" d="M1101.3.8c-.1-.1-.1-.2-.2-.3h-1.1z" class="st0" transform="matrix(1.19307 0 0 1.59489 1.2608318 -107.07834)"/>
  <path stroke-miterlimit="10" stroke-width=".72720218" d="M1264.1625 109.51372C1006.9281 93.298931 935.68359 17.461683 922.85959.55287875c-.33527-.06309256-.67054-.12618511-1.08962-.18927766H-.63639891V681.76317H1608.6505V239.35819c-5.5319-9.96862-68.73-112.43093-344.488-129.84447zm-74.9324 279.81547c-5.8672 0-11.3153-1.13567-15.9252-3.15463-4.0233 1.38804-8.6332 2.20824-13.4108 2.20824-5.3643 0-10.3933-.94639-14.6679-2.64989-4.2747 1.7035-9.3037 2.64989-14.668 2.64989s-10.3933-.94639-14.668-2.64989c-4.2747 1.7035-9.3037 2.64989-14.668 2.64989-5.8672 0-11.3153-1.13567-15.9252-3.15463-4.0232 1.38804-8.6332 2.20824-13.4107 2.20824-5.3643 0-10.3934-.94639-14.668-2.64989-4.2747 1.7035-9.3037 2.64989-14.668 2.64989-16.1767 0-29.2521-8.76986-29.2521-19.55869 0-10.78883 13.0754-19.55869 29.2521-19.55869 5.3643 0 10.3933.94639 14.668 2.64989 4.2746-1.7035 9.3037-2.64989 14.668-2.64989 5.8672 0 11.3153 1.13566 15.9252 3.15463 4.0232-1.38804 8.6331-2.20824 13.4107-2.20824 5.3643 0 10.3933.94638 14.668 2.64988 4.2747-1.7035 9.3037-2.64988 14.668-2.64988s10.3933.94638 14.668 2.64988c4.2746-1.7035 9.3036-2.64988 14.6679-2.64988 5.8672 0 11.3153 1.13566 15.9253 3.15462 4.0232-1.38803 8.6331-2.20824 13.4107-2.20824 16.1767 0 29.2521 8.76987 29.2521 19.5587 0 10.78882-13.0754 19.55869-29.2521 19.55869zm193.8688-63.09256c-10.1419 0-19.697-1.95586-27.5758-5.29977-6.9568 2.33442-14.9195 3.65937-23.3012 3.65937-9.3036 0-18.0206-1.64041-25.4803-4.41648-7.4598 2.83916-16.1767 4.41648-25.4804 4.41648s-18.0207-1.64041-25.4804-4.41648c-7.4597 2.83916-16.1767 4.41648-25.4804 4.41648-10.1418 0-19.697-1.95587-27.5758-5.29978-6.9568 2.33443-14.9194 3.65937-23.3011 3.65937-9.3037 0-18.0207-1.6404-25.4804-4.41648-7.4597 2.83917-16.1767 4.41648-25.4803 4.41648-27.9949 0-50.7932-14.70056-50.7932-32.74503s22.7144-32.74504 50.7932-32.74504c9.3036 0 18.0206 1.64041 25.4803 4.41648 7.4597-2.83916 16.1767-4.41648 25.4804-4.41648 10.1419 0 19.697 1.95587 27.5758 5.29978 6.9568-2.33443 14.9194-3.65937 23.3011-3.65937 9.3037 0 18.0207 1.64041 25.4804 4.41648 7.4597-2.83917 16.1767-4.41648 25.4804-4.41648s18.0206 1.64041 25.4804 4.41648c7.4597-2.83917 16.1767-4.41648 25.4803-4.41648 10.1419 0 19.697 1.95587 27.5758 5.29977 6.9569-2.33442 14.9195-3.65936 23.3012-3.65936 27.9949 0 50.7931 14.70056 50.7931 32.74503s-22.7144 32.74503-50.7931 32.74503zm91.1091-85.80587c-5.8672 0-11.3153-1.13566-15.9253-3.15462-4.0232 1.38803-8.6331 2.20824-13.4107 2.20824-5.3643 0-10.3933-.94639-14.668-2.64989-4.2746 1.7035-9.3036 2.64989-14.6679 2.64989s-10.3933-.94639-14.668-2.64989c-4.2747 1.7035-9.3037 2.64989-14.668 2.64989-5.8672 0-11.3153-1.13567-15.9252-3.15463-4.0232 1.38803-8.6332 2.20824-13.4108 2.20824-5.3642 0-10.3933-.94639-14.6679-2.64989-4.2747 1.7035-9.3037 2.64989-14.668 2.64989-16.1767 0-29.2522-8.76987-29.2522-19.55869 0-10.78883 13.0755-19.5587 29.2522-19.5587 5.3643 0 10.3933.94639 14.668 2.64989 4.2746-1.7035 9.3037-2.64989 14.6679-2.64989 5.8672 0 11.3153 1.13567 15.9253 3.15463 4.0232-1.38803 8.6331-2.20824 13.4107-2.20824 5.3643 0 10.3933.94639 14.668 2.64989 4.2747-1.7035 9.3037-2.64989 14.668-2.64989s10.3933.94639 14.6679 2.64989c4.2747-1.7035 9.3037-2.64989 14.668-2.64989 5.8672 0 11.3153 1.13567 15.9253 3.15463 4.0232-1.38804 8.6331-2.20824 13.4107-2.20824 16.1767 0 29.2521 8.76987 29.2521 19.55869 0 10.78883-13.0754 19.55869-29.2521 19.55869z" class="st0" transform="matrix(1.19307 0 0 1.59489 1.2608318 -107.07834)"/>
  <path fill="#1a1a1a" stroke-miterlimit="10" stroke-width="1.01421952" d="M1563.5 502.50711h150.98578v477.5069H1563.5072z"/>
  <path fill="#333" stroke-miterlimit="10" stroke-width="1.05656457" d="M1726.5 800.52826h108.94344v180.22513H1726.5283z"/>
  <path fill="#666" stroke-miterlimit="10" stroke-width="1.03263271" d="M1427.5 872.51636h122.96737v107.72793H1427.5162z"/>
</svg>
