<?xml version="1.0" encoding="utf-8"?>
<!-- Generator: Adobe Illustrator 22.1.0, SVG Export Plug-In . SVG Version: 6.00 Build 0)  -->
<svg version="1.1" id="Layer_1" xmlns="http://www.w3.org/2000/svg" xmlns:xlink="http://www.w3.org/1999/xlink" x="0px" y="0px"
	 viewBox="0 0 1919 974" style="enable-background:new 0 0 1919 974;" xml:space="preserve">
<style type="text/css">
	.st0{clip-path:url(#SVGID_2_);}
	.st1{clip-path:url(#SVGID_4_);fill:#1A1A1A;}
	.st2{clip-path:url(#SVGID_6_);fill:#333333;}
	.st3{clip-path:url(#SVGID_8_);fill:#666666;}
	.st4{fill:#FFFFFF;}
</style>
<g>
	<g>
		<defs>
			<rect id="SVGID_1_" width="1920" height="974"/>
		</defs>
		<clipPath id="SVGID_2_">
			<use xlink:href="#SVGID_1_"  style="overflow:visible;"/>
		</clipPath>
		<path class="st0" d="M1509.4,67.6c-307-25.9-392-146.8-407.3-173.8c-0.4-0.1-0.8-0.2-1.3-0.3H0V980.3h1920.5V274.7
			C1913.9,258.8,1838.5,95.4,1509.4,67.6z"/>
	</g>
	<g>
		<defs>
			<rect id="SVGID_3_" width="1920" height="974"/>
		</defs>
		<clipPath id="SVGID_4_">
			<use xlink:href="#SVGID_3_"  style="overflow:visible;"/>
		</clipPath>
		<path class="st1" d="M1563.5,502.5h151V980h-151V502.5z"/>
	</g>
	<g>
		<defs>
			<rect id="SVGID_5_" width="1920" height="974"/>
		</defs>
		<clipPath id="SVGID_6_">
			<use xlink:href="#SVGID_5_"  style="overflow:visible;"/>
		</clipPath>
		<path class="st2" d="M1726.5,800.5h108.9v180.2h-108.9V800.5z"/>
	</g>
	<g>
		<defs>
			<rect id="SVGID_7_" width="1920" height="974"/>
		</defs>
		<clipPath id="SVGID_8_">
			<use xlink:href="#SVGID_7_"  style="overflow:visible;"/>
		</clipPath>
		<path class="st3" d="M1427.5,872.5h123v107.7h-123V872.5z"/>
	</g>
</g>
<path class="st4" d="M1649.3,332.2c-11,0-21.3,2.8-30.2,7.7c-8.9-4.9-19.2-7.7-30.2-7.7c-11,0-21.3,2.8-30.2,7.7
	c-8.9-4.9-19.2-7.7-30.2-7.7c-11,0-21.3,2.8-30.2,7.7c-8.9-4.9-19.2-7.7-30.2-7.7c-11,0-21.3,2.8-30.2,7.7
	c-8.9-4.9-19.2-7.7-30.2-7.7s-21.3,2.8-30.2,7.7c-8.9-4.9-19.2-7.7-30.2-7.7c-33.3,0-60.4,25.8-60.4,57.7c0,31.9,27,57.7,60.4,57.7
	c11,0,21.3-2.8,30.2-7.7c8.9,4.9,19.2,7.7,30.2,7.7s21.3-2.8,30.2-7.7c8.9,4.9,19.2,7.7,30.2,7.7c11,0,21.3-2.8,30.2-7.7
	c8.9,4.9,19.2,7.7,30.2,7.7c11,0,21.3-2.8,30.2-7.7c8.9,4.9,19.2,7.7,30.2,7.7c11,0,21.3-2.8,30.2-7.7c8.9,4.9,19.2,7.7,30.2,7.7
	c33.3,0,60.4-25.8,60.4-57.7C1709.7,358,1682.6,332.2,1649.3,332.2z"/>
<path class="st4" d="M1386.4,477.1c-6.4,0-12.3,1.5-17.5,4.2c-5.1-2.7-11.1-4.2-17.5-4.2s-12.3,1.5-17.5,4.2
	c-5.1-2.7-11.1-4.2-17.5-4.2s-12.3,1.5-17.5,4.2c-5.1-2.7-11.1-4.2-17.5-4.2s-12.3,1.5-17.5,4.2c-5.1-2.7-11.1-4.2-17.5-4.2
	s-12.3,1.5-17.5,4.2c-5.1-2.7-11.1-4.2-17.5-4.2c-19.3,0-35,14.1-35,31.5c0,17.4,15.7,31.5,35,31.5c6.4,0,12.3-1.5,17.5-4.2
	c5.1,2.7,11.1,4.2,17.5,4.2s12.3-1.5,17.5-4.2c5.1,2.7,11.1,4.2,17.5,4.2s12.3-1.5,17.5-4.2c5.1,2.7,11.1,4.2,17.5,4.2
	s12.3-1.5,17.5-4.2c5.1,2.7,11.1,4.2,17.5,4.2s12.3-1.5,17.5-4.2c5.1,2.7,11.1,4.2,17.5,4.2c19.3,0,35-14.1,35-31.5
	C1421.4,491.2,1405.7,477.1,1386.4,477.1z"/>
<path class="st4" d="M1797.1,239.7c-6.4,0-12.3,1.5-17.5,4.2c-5.1-2.7-11.1-4.2-17.5-4.2s-12.3,1.5-17.5,4.2
	c-5.1-2.7-11.1-4.2-17.5-4.2s-12.3,1.5-17.5,4.2c-5.1-2.7-11.1-4.2-17.5-4.2s-12.3,1.5-17.5,4.2c-5.1-2.7-11.1-4.2-17.5-4.2
	s-12.3,1.5-17.5,4.2c-5.1-2.7-11.1-4.2-17.5-4.2c-19.3,0-35,14.1-35,31.5s15.7,31.5,35,31.5c6.4,0,12.3-1.5,17.5-4.2
	c5.1,2.7,11.1,4.2,17.5,4.2s12.3-1.5,17.5-4.2c5.1,2.7,11.1,4.2,17.5,4.2s12.3-1.5,17.5-4.2c5.1,2.7,11.1,4.2,17.5,4.2
	s12.3-1.5,17.5-4.2c5.1,2.7,11.1,4.2,17.5,4.2s12.3-1.5,17.5-4.2c5.1,2.7,11.1,4.2,17.5,4.2c19.3,0,35-14.1,35-31.5
	S1816.4,239.7,1797.1,239.7z"/>
</svg>
