<svg id="Layer_1" data-name="Layer 1" xmlns="http://www.w3.org/2000/svg" viewBox="0 0 1920 1080"><defs><style>.cls-1{fill:#1a1a1a;}.cls-1,.cls-2,.cls-3{stroke:#000;stroke-miterlimit:10;}.cls-2{fill:#333;}.cls-3{fill:#666;}</style></defs><title>Artboard 1</title><path d="M0,1080V1H1101.5V.5h818v378h-.9l.4.95V1080ZM1400.07,612.58a38.58,38.58,0,0,0,19,4.92c19.52,0,35.41-14.12,35.41-31.48s-15.89-31.48-35.41-31.48a39.26,39.26,0,0,0-16,3.4,39.25,39.25,0,0,0-36.53-.8,39.31,39.31,0,0,0-35,0,39.37,39.37,0,0,0-33.54-.72,39.25,39.25,0,0,0-36.53-.8,38.78,38.78,0,0,0-17.52-4.12c-19.52,0-35.41,14.12-35.41,31.48s15.89,31.48,35.41,31.48a38.94,38.94,0,0,0,17.52-4.12,39.37,39.37,0,0,0,33.54.72,39.25,39.25,0,0,0,36.53.8,39.31,39.31,0,0,0,35,0,39.35,39.35,0,0,0,33.53.72Zm217.4-103.38a68.29,68.29,0,0,0,33,8.3c33.67,0,61.06-23.53,61.06-52.45s-27.39-52.45-61.06-52.45a69.5,69.5,0,0,0-27.81,5.75,69.75,69.75,0,0,0-63.35-1.35,69.92,69.92,0,0,0-60.78,0,70,70,0,0,0-58.19-1.2,69.77,69.77,0,0,0-63.36-1.35,68.9,68.9,0,0,0-30.39-6.95c-33.67,0-61.06,23.53-61.06,52.45s27.39,52.45,61.06,52.45a68.9,68.9,0,0,0,30.39-6.95,70,70,0,0,0,58.19,1.2A69.77,69.77,0,0,0,1498.5,508a69.92,69.92,0,0,0,60.78,0,70,70,0,0,0,58.19,1.2Zm122.6-132.62a38.58,38.58,0,0,0,19,4.92c19.52,0,35.41-14.12,35.41-31.48s-15.89-31.48-35.41-31.48a39.22,39.22,0,0,0-16,3.4,39.25,39.25,0,0,0-36.53-.8,39.31,39.31,0,0,0-35,0,39.37,39.37,0,0,0-33.54-.72,39.25,39.25,0,0,0-36.53-.8,38.81,38.81,0,0,0-17.52-4.12c-19.52,0-35.41,14.12-35.41,31.48s15.89,31.48,35.41,31.48a38.94,38.94,0,0,0,17.52-4.12,39.37,39.37,0,0,0,33.54.72,39.25,39.25,0,0,0,36.53.8,39.31,39.31,0,0,0,35,0,39.35,39.35,0,0,0,33.53.72Z"/><path d="M1919,1V378h-1.15l.58,1.39.07.16v700H.5V1.5H1102V1h817M1601.43,319.06a39.35,39.35,0,0,0-17.52-4.06c-19.8,0-35.91,14.35-35.91,32s16.11,32,35.91,32a39.35,39.35,0,0,0,17.52-4.06A39.35,39.35,0,0,0,1619,379a39.8,39.8,0,0,0,16-3.34,39.78,39.78,0,0,0,36.56.8,39.83,39.83,0,0,0,35,0,39.89,39.89,0,0,0,33.51.72,39.09,39.09,0,0,0,19,4.86c19.8,0,35.91-14.35,35.91-32s-16.11-32-35.91-32a39.24,39.24,0,0,0-16,3.34,39.76,39.76,0,0,0-36.55-.8,39.83,39.83,0,0,0-35,0,39.89,39.89,0,0,0-33.51-.72,39.78,39.78,0,0,0-36.56-.8M1377,413.89a69.47,69.47,0,0,0-30.39-6.89C1312.62,407,1285,430.75,1285,460s27.62,52.95,61.56,52.95A69.61,69.61,0,0,0,1377,506a70.56,70.56,0,0,0,58.17,1.2,70.31,70.31,0,0,0,63.38,1.35,70.47,70.47,0,0,0,60.78,0,70.56,70.56,0,0,0,58.17,1.2,68.82,68.82,0,0,0,33,8.24c33.94,0,61.56-23.75,61.56-52.95s-27.62-52.95-61.56-52.95a69.1,69.1,0,0,0-27.78,5.69,70.31,70.31,0,0,0-63.38-1.35,70.47,70.47,0,0,0-60.78,0,70.56,70.56,0,0,0-58.17-1.2,70.31,70.31,0,0,0-63.38-1.35M1261.43,555.06a39.35,39.35,0,0,0-17.52-4.06c-19.8,0-35.91,14.35-35.91,32s16.11,32,35.91,32a39.35,39.35,0,0,0,17.52-4.06A39.35,39.35,0,0,0,1279,615a39.8,39.8,0,0,0,16-3.34,39.78,39.78,0,0,0,36.56.8,39.83,39.83,0,0,0,35,0,39.89,39.89,0,0,0,33.51.72,39.09,39.09,0,0,0,19,4.86c19.8,0,35.91-14.35,35.91-32s-16.11-32-35.91-32a39.24,39.24,0,0,0-16,3.34,39.76,39.76,0,0,0-36.55-.8,39.83,39.83,0,0,0-35,0,39.89,39.89,0,0,0-33.51-.72,39.78,39.78,0,0,0-36.56-.8M1920,0H1101V.5H-.5v1080h1920V379.35c0-.11-.09-.23-.15-.35h.65V0ZM1601.43,320.18a38.75,38.75,0,0,1,36.51.8,38.86,38.86,0,0,1,33.56.72,38.81,38.81,0,0,1,35,0,38.73,38.73,0,0,1,36.5.8,38.39,38.39,0,0,1,16-3.46c19.28,0,34.91,13.87,34.91,31s-15.63,31-34.91,31a38,38,0,0,1-19-5,38.86,38.86,0,0,1-33.56-.72,38.81,38.81,0,0,1-35,0,38.75,38.75,0,0,1-36.51-.8,38.86,38.86,0,0,1-33.56-.72,38.26,38.26,0,0,1-17.52,4.18c-19.28,0-34.91-13.87-34.91-31s15.63-31,34.91-31a38.13,38.13,0,0,1,17.52,4.18ZM1377,415a69.26,69.26,0,0,1,63.33,1.34,69.52,69.52,0,0,1,58.22,1.21,69.38,69.38,0,0,1,60.78,0,69.24,69.24,0,0,1,63.32,1.34,68.63,68.63,0,0,1,27.84-5.8c33.45,0,60.56,23.26,60.56,51.95S1683.89,517,1650.44,517a67.76,67.76,0,0,1-33-8.35,69.49,69.49,0,0,1-58.21-1.21,69.38,69.38,0,0,1-60.78,0,69.22,69.22,0,0,1-63.33-1.35,69.46,69.46,0,0,1-58.22-1.2,68.13,68.13,0,0,1-30.39,7c-33.45,0-60.56-23.26-60.56-51.95S1313.11,408,1346.56,408a68,68,0,0,1,30.39,7ZM1261.43,556.18a38.75,38.75,0,0,1,36.51.8,38.86,38.86,0,0,1,33.56.72,38.81,38.81,0,0,1,35,0,38.73,38.73,0,0,1,36.5.8,38.39,38.39,0,0,1,16-3.46c19.28,0,34.91,13.87,34.91,31s-15.63,31-34.91,31a38,38,0,0,1-19-5,38.86,38.86,0,0,1-33.56-.72,38.81,38.81,0,0,1-35,0,38.75,38.75,0,0,1-36.51-.8,38.86,38.86,0,0,1-33.56-.72,38.26,38.26,0,0,1-17.52,4.18c-19.28,0-34.91-13.87-34.91-31s15.63-31,34.91-31a38.13,38.13,0,0,1,17.52,4.18Z"/><rect class="cls-1" x="1562.5" y="609.5" width="151" height="470"/><rect class="cls-2" x="1725.5" y="907.5" width="109" height="173"/><rect class="cls-3" x="1426.5" y="979.5" width="123" height="101"/></svg>