<?xml version="1.0" encoding="utf-8"?>
<!-- Generator: Adobe Illustrator 22.1.0, SVG Export Plug-In . SVG Version: 6.00 Build 0)  -->
<svg version="1.1" id="Layer_1" xmlns="http://www.w3.org/2000/svg" xmlns:xlink="http://www.w3.org/1999/xlink" x="0px" y="0px"
	 viewBox="0 0 1920 1080" style="enable-background:new 0 0 1920 1080;" xml:space="preserve">
<style type="text/css">
	.st0{stroke:#000000;stroke-miterlimit:10;}
	.st1{fill:#1A1A1A;stroke:#000000;stroke-miterlimit:10;}
	.st2{fill:#333333;stroke:#000000;stroke-miterlimit:10;}
	.st3{fill:#666666;stroke:#000000;stroke-miterlimit:10;}
</style>
<g>
	<path class="st0" d="M1101.3,0.8c-0.1-0.1-0.1-0.2-0.2-0.3h-1.1L1101.3,0.8z"/>
	<path class="st0" d="M1508.5,173.5c-306.9-25.7-391.9-145.9-407.2-172.7c-0.4-0.1-0.8-0.2-1.3-0.3H-0.5v1080h1920V379.3
		C1912.9,363.5,1837.5,201.1,1508.5,173.5z M1419.1,617c-7,0-13.5-1.8-19-5c-4.8,2.2-10.3,3.5-16,3.5c-6.4,0-12.4-1.5-17.5-4.2
		c-5.1,2.7-11.1,4.2-17.5,4.2c-6.4,0-12.4-1.5-17.5-4.2c-5.1,2.7-11.1,4.2-17.5,4.2c-7,0-13.5-1.8-19-5c-4.8,2.2-10.3,3.5-16,3.5
		c-6.4,0-12.4-1.5-17.5-4.2c-5.1,2.7-11.1,4.2-17.5,4.2c-19.3,0-34.9-13.9-34.9-31c0-17.1,15.6-31,34.9-31c6.4,0,12.4,1.5,17.5,4.2
		c5.1-2.7,11.1-4.2,17.5-4.2c7,0,13.5,1.8,19,5c4.8-2.2,10.3-3.5,16-3.5c6.4,0,12.4,1.5,17.5,4.2c5.1-2.7,11.1-4.2,17.5-4.2
		c6.4,0,12.4,1.5,17.5,4.2c5.1-2.7,11.1-4.2,17.5-4.2c7,0,13.5,1.8,19,5c4.8-2.2,10.3-3.5,16-3.5c19.3,0,34.9,13.9,34.9,31
		S1438.4,617,1419.1,617z M1650.4,517c-12.1,0-23.5-3.1-32.9-8.4c-8.3,3.7-17.8,5.8-27.8,5.8c-11.1,0-21.5-2.6-30.4-7
		c-8.9,4.5-19.3,7-30.4,7c-11.1,0-21.5-2.6-30.4-7c-8.9,4.5-19.3,7-30.4,7c-12.1,0-23.5-3.1-32.9-8.4c-8.3,3.7-17.8,5.8-27.8,5.8
		c-11.1,0-21.5-2.6-30.4-7c-8.9,4.5-19.3,7-30.4,7c-33.4,0-60.6-23.3-60.6-51.9s27.1-51.9,60.6-51.9c11.1,0,21.5,2.6,30.4,7
		c8.9-4.5,19.3-7,30.4-7c12.1,0,23.5,3.1,32.9,8.4c8.3-3.7,17.8-5.8,27.8-5.8c11.1,0,21.5,2.6,30.4,7c8.9-4.5,19.3-7,30.4-7
		c11.1,0,21.5,2.6,30.4,7c8.9-4.5,19.3-7,30.4-7c12.1,0,23.5,3.1,32.9,8.4c8.3-3.7,17.8-5.8,27.8-5.8c33.4,0,60.6,23.3,60.6,51.9
		S1683.9,517,1650.4,517z M1759.1,381c-7,0-13.5-1.8-19-5c-4.8,2.2-10.3,3.5-16,3.5c-6.4,0-12.4-1.5-17.5-4.2
		c-5.1,2.7-11.1,4.2-17.5,4.2c-6.4,0-12.4-1.5-17.5-4.2c-5.1,2.7-11.1,4.2-17.5,4.2c-7,0-13.5-1.8-19-5c-4.8,2.2-10.3,3.5-16,3.5
		c-6.4,0-12.4-1.5-17.5-4.2c-5.1,2.7-11.1,4.2-17.5,4.2c-19.3,0-34.9-13.9-34.9-31c0-17.1,15.6-31,34.9-31c6.4,0,12.4,1.5,17.5,4.2
		c5.1-2.7,11.1-4.2,17.5-4.2c7,0,13.5,1.8,19,5c4.8-2.2,10.3-3.5,16-3.5c6.4,0,12.4,1.5,17.5,4.2c5.1-2.7,11.1-4.2,17.5-4.2
		c6.4,0,12.4,1.5,17.5,4.2c5.1-2.7,11.1-4.2,17.5-4.2c7,0,13.5,1.8,19,5c4.8-2.2,10.3-3.5,16-3.5c19.3,0,34.9,13.9,34.9,31
		S1778.4,381,1759.1,381z"/>
</g>
<rect x="1562.5" y="609.5" class="st1" width="151" height="470"/>
<rect x="1725.5" y="907.5" class="st2" width="109" height="173"/>
<rect x="1426.5" y="979.5" class="st3" width="123" height="101"/>
</svg>
